<svg xmlns="http://www.w3.org/2000/svg" xml:space="preserve" id="Layer_1" width="666.66669" height="187.6282" x="0px" y="0px" version="1.1" viewBox="0 0 666.66669 187.62821"><style>.st14{fill:#fff}</style><g id="g1802" transform="matrix(1.33333 0 0 1.33333 0 0)"><path id="path1777" d="M474.349 21.597c-3.152-7.255-9.107-12.229-16.766-14.006-4.929-1.143-13.254-1.676-26.201-1.676H40.252c-4 0-7.502 2.687-8.537 6.551L4.779 112.993c-1.883 7.028-.606 14.128 3.5 19.48 4.023 5.241 10.345 8.248 17.344 8.248h201.48c5.883 0 11.289-1.576 15.65-4.368 3.679 2.815 8.312 4.368 13.293 4.368h170.88c12.233 0 24.46-8.488 27.256-18.92l8.047-30.035c3.206-11.963 3.53-14.951 3.586-16.993.065-2.432-.32-4.894-1.145-7.358 3.911-4.208 6.917-10.573 9.428-19.943 2.991-11.165 3.07-19.387.25-25.875" style="opacity:.3"/><linearGradient id="SVGID_1_" x1="230.54044" x2="239.4357" y1="4.6152601" y2="106.28854" gradientUnits="userSpaceOnUse"><stop id="stop1779" offset="0" style="stop-color:#0958a5"/><stop id="stop1781" offset="1" style="stop-color:#13007c"/></linearGradient><path id="path1784" d="M470.42 15.704C467.269 8.45 461.314 3.476 453.655 1.7 448.726.556 440.401.023 427.454.023H36.324c-4 0-7.502 2.687-8.537 6.55L.85 107.1c-1.882 7.028-.606 14.128 3.501 19.48 4.023 5.242 10.344 8.249 17.344 8.249h201.48c5.883 0 11.288-1.576 15.65-4.369 3.679 2.816 8.312 4.369 13.292 4.369h170.88c12.234 0 24.46-8.488 27.256-18.92l8.048-30.036c3.206-11.963 3.53-14.95 3.586-16.992.065-2.432-.32-4.894-1.145-7.359 3.91-4.207 6.917-10.573 9.427-19.942 2.992-11.165 3.071-19.387.252-25.876" style="fill:url(#SVGID_1_)"/><linearGradient id="SVGID_2_" x1="205.01326" x2="237.88005" y1="-47.110809" y2="75.549751" gradientUnits="userSpaceOnUse"><stop id="stop1786" offset="0.1" style="stop-color:#aad1e5"/><stop id="stop1788" offset="0.4" style="stop-color:#0769ac"/><stop id="stop1790" offset="0.83" style="stop-color:#0769ac;stop-opacity:0"/></linearGradient><path id="path1793" d="M466.85 40.69c2.778-10.374 2.912-17.878.418-23.616-2.707-6.23-7.818-10.502-14.39-12.027-4.667-1.082-12.745-1.587-25.424-1.587H36.324a5.4 5.4 0 0 0-5.217 4.004L4.17 107.989c-1.604 5.988-.544 12.001 2.907 16.498 3.416 4.453 8.608 6.904 14.617 6.904h201.48c6.297 0 11.839-1.913 15.9-5.288 3.301 3.425 7.862 5.288 13.042 5.288h170.88c10.597 0 21.558-7.498 23.936-16.372l8.048-30.035c3.109-11.602 3.42-14.44 3.47-16.195.07-2.662-.514-5.395-1.74-8.147q.57-.493 1.091-1.02c3.718-3.756 6.593-9.771 9.047-18.932" style="fill:url(#SVGID_2_)"/><linearGradient id="SVGID_3_" x1="236.22989" x2="236.22989" y1="5.9154902" y2="128.93619" gradientUnits="userSpaceOnUse"><stop id="stop1795" offset="0" style="stop-color:#0958a5"/><stop id="stop1797" offset="1" style="stop-color:#13007c"/></linearGradient><path id="path1800" d="M456.058 57.894a18 18 0 0 1-2.435 2.047c1.65 3.002 2.45 5.956 2.373 8.782-.048 1.73-.49 4.82-3.387 15.625l-8.048 30.035c-2.077 7.752-12.154 14.553-21.564 14.553h-170.88c-5.1 0-9.492-2.062-12.364-5.805q-.24-.313-.462-.637c-3.683 4.073-9.415 6.442-16.116 6.442H21.695c-5.229 0-9.728-2.11-12.669-5.943-2.983-3.887-3.889-9.125-2.484-14.369L33.478 8.1a2.95 2.95 0 0 1 2.846-2.184h391.13c12.487 0 20.388.485 24.868 1.524 5.88 1.364 10.27 5.034 12.694 10.613 2.23 5.13 2.054 12.328-.539 22.003-2.307 8.612-5.06 14.447-8.42 17.84" style="fill:url(#SVGID_3_)"/></g><g id="Kartrider" transform="matrix(1.33333 0 0 1.33333 0 0)"><path id="path1804" d="M462.315 19.227c-2.038-4.69-5.724-7.773-10.658-8.918-4.198-.974-12.115-1.447-24.203-1.447h-20.209l-6.176 23.051h-37.52l-6.678 24.922c1.08-4.357 1.695-7.436 1.866-9.336.28-3.095-.365-5.962-1.913-8.517-1.627-2.686-4.407-4.596-8.263-5.678-3.336-.936-9.605-1.39-19.165-1.39H190.59l-2.574 9.604a11 11 0 0 0-.427-1.201c-1.664-3.827-4.672-6.343-8.7-7.277-3.267-.758-9.374-1.127-18.669-1.127h-57.207L76.981 96.931l-1.194-40.559 22.555-37.731 18.172-9.78h-43.68L64.148 24.22l4.116-15.358h-31.94L9.388 109.387c-1.166 4.352-.446 8.657 1.976 11.812 2.37 3.09 6.039 4.791 10.331 4.791h201.48c8.045 0 14.439-3.888 16.652-10 .323 1.973 1.078 3.804 2.263 5.348 2.302 3 5.863 4.652 10.027 4.652h170.88c8.062 0 16.984-5.895 18.719-12.37l1.042-3.89 7.005-26.144c2.842-10.604 3.25-13.554 3.288-14.942.062-2.331-.637-4.824-2.078-7.406a9.1 9.1 0 0 0-1.708-2.176q2.775-1.299 4.7-3.24c2.988-3.02 5.495-8.426 7.667-16.53 2.413-9.006 2.636-15.57.683-20.065" style="fill:#13007c"/><linearGradient id="R_5_" x1="422.16684" x2="422.16684" y1="12.299" y2="108.37392" gradientUnits="userSpaceOnUse"><stop id="stop1806" offset="0.1" style="stop-color:#fee400"/><stop id="stop1808" offset="0.9" style="stop-color:#ffb300"/></linearGradient><path id="R_4_" d="M409.883 12.299h17.57q17.571 0 23.427 1.358t8.282 6.94-.85 17.806q-2.991 11.16-6.79 15t-12.143 4.607q6.879 1.83 8.592 4.902 1.713 3.07 1.643 5.64-.07 2.568-3.17 14.144l-6.881 25.678h-23.054l8.637-32.234q2.057-7.677 1.34-9.508-.72-1.83-5.848-1.83l-11.676 43.572H384.14zm20.44 16.359-5.698 21.26q4.187 0 6.175-1.15 1.99-1.153 3.683-7.472l1.408-5.256q1.219-4.547-.023-5.965-1.241-1.417-5.546-1.417" style="fill:url(#R_5_)"/><linearGradient id="E_1_" x1="372.20825" x2="372.20825" y1="35.350639" y2="108.37392" gradientUnits="userSpaceOnUse"><stop id="stop1812" offset="0.1" style="stop-color:#fee400"/><stop id="stop1814" offset="0.9" style="stop-color:#ffb300"/></linearGradient><path id="E" d="M366.186 35.35h31.611l-3.916 14.614h-12.653l-3.71 13.847h11.843l-3.723 13.892h-11.843l-4.302 16.057h13.914l-3.916 14.614H346.62z" style="fill:url(#E_1_)"/><linearGradient id="D_1_" x1="325.504" x2="325.504" y1="35.350639" y2="108.37392" gradientUnits="userSpaceOnUse"><stop id="stop1818" offset="0.1" style="stop-color:#fee400"/><stop id="stop1820" offset="0.9" style="stop-color:#ffb300"/></linearGradient><path id="D" d="M315.212 35.35h14.185q13.734 0 18.236 1.264 4.503 1.262 6.25 4.15 1.75 2.886 1.43 6.426-.317 3.54-3.098 13.915l-6.852 25.574q-2.635 9.833-4.446 13.148-1.812 3.315-4.61 5.187t-6.374 2.616-10.377.744h-23.91zm15.61 12.494L317.951 95.88q4.098 0 5.484-1.646 1.387-1.647 3.345-8.953l7.602-28.37q1.329-4.962 1.389-6.36t-.891-2.053-4.058-.654" style="fill:url(#D_1_)"/><linearGradient id="I_2_" x1="289.23679" x2="289.23679" y1="35.350639" y2="108.37392" gradientUnits="userSpaceOnUse"><stop id="stop1824" offset="0.1" style="stop-color:#fee400"/><stop id="stop1826" offset="0.9" style="stop-color:#ffb300"/></linearGradient><path id="I_1_" d="m308.499 35.35-17.461 65.167c-1.163 4.34-5.623 7.857-9.962 7.857h-11.101l17.461-65.167c1.163-4.339 5.623-7.856 9.962-7.856z" style="fill:url(#I_2_)"/><path id="R_3_" d="M352.724 111.873h-87.013c-2.712 0-4.321-2.199-3.595-4.91l4.782-17.848q2.37-8.841 2.422-10.803t-1.255-4.307q-1.308-2.346-6.562-3.744 6.372-.586 9.273-3.518 2.903-2.932 5.187-11.456 2.501-9.337.649-13.6-1.852-4.26-6.325-5.299-4.473-1.038-17.892-1.037h-13.419l-19.566 73.023h18.957l8.823-32.926q3.917 0 4.466 1.398t-1.023 7.262l-7.143 26.66c-1.744 6.508 2.118 11.785 8.627 11.785h170.88c6.69 0 14.09-4.94 15.398-9.821l.23-.86zm-97.772-48.67q-1.52.879-4.717.879l4.351-16.238q3.287 0 4.236 1.083t.017 4.555l-1.075 4.015q-1.294 4.826-2.812 5.705" style="fill:#4dac26"/><linearGradient id="T_1_" x1="209.7626" x2="209.7626" y1="35.350639" y2="108.37392" gradientUnits="userSpaceOnUse"><stop id="stop1831" offset="0.1" style="stop-color:#fee400"/><stop id="stop1833" offset="0.9" style="stop-color:#ffb300"/></linearGradient><path id="T" d="m234.653 35.35-3.915 14.614H219.48l-15.65 58.41h-18.958l15.65-58.41H189.31l3.916-14.613z" style="fill:url(#T_1_)"/><linearGradient id="R_6_" x1="156.22855" x2="156.22855" y1="35.350639" y2="108.37392" gradientUnits="userSpaceOnUse"><stop id="stop1837" offset="0.1" style="stop-color:#fee400"/><stop id="stop1839" offset="0.9" style="stop-color:#ffb300"/></linearGradient><path id="R_2_" d="M146.8 35.35h13.419q13.42 0 17.891 1.038 4.472 1.038 6.326 5.3 1.852 4.262-.65 13.599-2.283 8.524-5.186 11.456-2.902 2.931-9.273 3.518 5.254 1.398 6.562 3.744t1.255 4.307-2.422 10.803l-5.16 19.259h-17.607l6.502-24.266q1.57-5.864 1.023-7.262-.55-1.398-4.466-1.398l-8.823 32.926h-18.958Zm15.61 12.494-4.351 16.238q3.197 0 4.716-.88t2.812-5.705l1.076-4.015q.93-3.472-.018-4.555t-4.235-1.083" style="fill:url(#R_6_)"/><linearGradient id="A_4_" x1="104.42059" x2="104.42059" y1="35.350639" y2="108.37392" gradientUnits="userSpaceOnUse"><stop id="stop1843" offset="0.1" style="stop-color:#fee400"/><stop id="stop1845" offset="0.9" style="stop-color:#ffb300"/></linearGradient><path id="A_2_" d="m132.74 35.35-8.726 73.024h-18.392l2.5-13.125h-9.727l-4.658 13.125H76.102l29.237-73.023zm-22.627 46.954q1.882-12.405 5.329-30.67c-5.68 13.981-9.63 24.205-11.859 30.67z" style="fill:url(#A_4_)"/><linearGradient id="K_1_" x1="124.85101" x2="124.85101" y1="12.299" y2="122.55268" gradientUnits="userSpaceOnUse"><stop id="stop1849" offset="0.1" style="stop-color:#fee400"/><stop id="stop1851" offset="0.9" style="stop-color:#ffb300"/></linearGradient><path id="K" d="m38.945 104.998 10.201-38.07-.94 41.446h25.672L72.322 55.47l23.556-39.407 6.995-3.764H74.84L53.83 49.446 63.784 12.3H38.96l-26.253 97.978c-1.816 6.78 2.207 12.276 8.987 12.276h201.48c6.66 0 12.24-3.161 13.688-8.563l.567-2.117H43.978c-3.797 0-6.05-3.078-5.033-6.875" style="fill:url(#K_1_)"/></g><g id="Crazyracing" transform="matrix(1.33333 0 0 1.33333 0 0)"><path id="G" d="M377.097 16.028h-3.718c-.333-1.174-1.53-2.55-3.589-2.55-2.323 0-4.138 1.833-4.138 5.426s1.682 5.567 4.205 5.567c2.239 0 3.564-1.56 3.564-2.866v-.328h-3.874v-3.289h7.658v9.49h-2.9l-.11-1.387c-.971 1.1-2.612 1.691-4.914 1.691-4.736 0-7.635-3.429-7.635-8.878 0-5.379 3.32-8.738 8.189-8.738 3.563 0 6.51 2.15 7.262 5.862" class="st14"/><path id="N" d="m347.272 27.477-5.81-11.744v11.744h-3.294V10.448h4.153l5.81 11.744V10.448h3.294v17.029z" class="st14"/><path id="I" d="M326.913 27.477h-3.568V10.448h3.568z" class="st14"/><path id="C_1_" d="M309.18 21.529c-.558 2.25-2.247 2.942-3.794 2.942-2.302 0-4.05-1.926-4.05-5.52 0-3.476 1.748-5.472 4.005-5.472 1.685 0 3.2.906 3.726 2.941h3.75c-.685-3.666-3.454-6.254-7.343-6.254-5.002 0-8.144 3.406-8.144 8.785 0 5.449 3.031 8.831 8.034 8.831 3.913 0 6.847-2.524 7.562-6.253z" class="st14"/><path id="A_3_" d="M278.978 10.967h3.93l6.732 16.51h-3.929l-1.465-3.593h-6.664l-1.48 3.593h-3.93zm.079 9.34h3.731l-1.856-4.55z" class="st14"/><path id="R_1_" d="M254.725 21.064h-1.188v6.413h-3.785V10.448h6.175c4.161 0 7.281 1.034 7.281 5.261 0 2.513-2.18 4.364-3.89 4.842l5.136 6.926h-4.973zm-1.188-7.234v3.852h2.5c1.793 0 2.751-.328 2.751-1.926 0-1.573-.958-1.926-2.75-1.926z" class="st14"/><path id="Y" d="m228.651 10.448 3.585 6.53 3.63-6.53h4.382L234.05 20.9v6.577h-3.784v-6.624l-6.043-10.405z" class="st14"/><path id="Z" d="m215.097 13.693-8.3 10.084h8.41v3.437h-13.389v-2.982l8.344-10.106h-7.702V10.71h12.637z" class="st14"/><path id="A_1_" d="M182.414 10.967h3.93l6.731 16.51h-3.928l-1.465-3.593h-6.664l-1.48 3.593h-3.93zm.078 9.34h3.732l-1.856-4.55z" class="st14"/><path id="R" d="M158.32 21.064h-1.188v6.413h-3.785V10.448h6.175c4.161 0 7.282 1.034 7.282 5.261 0 2.513-2.18 4.364-3.891 4.842l5.137 6.926h-4.973zm-1.188-7.234v3.852h2.501c1.792 0 2.75-.328 2.75-1.926 0-1.573-.958-1.926-2.75-1.926z" class="st14"/><path id="C" d="M139.222 21.529c-.557 2.25-2.247 2.942-3.794 2.942-2.301 0-4.05-1.926-4.05-5.52 0-3.476 1.749-5.472 4.006-5.472 1.684 0 3.199.906 3.726 2.941h3.75c-.685-3.666-3.454-6.254-7.343-6.254-5.002 0-8.145 3.406-8.145 8.785 0 5.449 3.032 8.831 8.035 8.831 3.912 0 6.847-2.524 7.561-6.253z" class="st14"/></g><path id="_x2122_" d="M641.883 3.471h-4.193V0h12.194v3.471h-4.224v10.381h-3.777zm15.93 10.381-2.61-9.652v9.652h-3.293V0h5.335l2.072 8.887L661.672 0h4.995v13.852h-3.293v-9.72l-2.583 9.72z" style="stroke-width:1.33333"/></svg>